<svg xmlns="http://www.w3.org/2000/svg" width="35" height="30" viewBox="0 0 35 30"><defs><style>.a{fill:#f5f5f5;}</style></defs><g transform="translate(0 -32)"><g transform="translate(0 32)"><g transform="translate(0 0)"><path class="a" d="M19.992,32A14.989,14.989,0,0,0,5,47H0l6.492,6.492.117.242L13.333,47h-5a11.694,11.694,0,1,1,3.425,8.242L9.4,57.6A15,15,0,1,0,19.992,32Z" transform="translate(0 -32)"/></g></g><g transform="translate(15.432 39.859)"><path class="a" d="M205.189,136.881a3.291,3.291,0,0,0-2.641-1.187c-1.3,0-2.484.375-2.484,1.469,0,1.031,1.234,1.219,2.547,1.375,2.281.281,4.719.687,4.719,3.437,0,2.109-1.766,3.3-3.7,3.437v1.563h-1.984V145.49a4.647,4.647,0,0,1-4.109-2.672l1.844-.781a3.417,3.417,0,0,0,3.109,1.641c1.406,0,2.7-.484,2.7-1.7,0-1.031-1.3-1.406-2.75-1.578-2.234-.25-4.422-.641-4.422-3.234,0-2.047,1.813-2.984,3.625-3.2V132.6h1.984v1.359a3.927,3.927,0,0,1,3.25,2.141Z" transform="translate(-197.533 -132.6)"/></g></g></svg>